HIERARCHY
ROOT newVegas:Hips
{
	OFFSET 0.000000 96.479958 0.000000
	CHANNELS 6 Xposition Yposition Zposition Xrotation Yrotation Zrotation
	JOINT newVegas:Pelvis
	{
		OFFSET 0.000000 0.000000 0.000000
		CHANNELS 3 Xrotation Yrotation Zrotation
		JOINT newVegas:LeftUpLeg
		{
			OFFSET 18.735201 -5.666702 -4.541200
			CHANNELS 3 Xrotation Yrotation Zrotation
			JOINT newVegas:LeftLeg
			{
				OFFSET -0.021200 -31.938179 0.493100
				CHANNELS 3 Xrotation Yrotation Zrotation
				JOINT newVegas:LeftFoot
				{
					OFFSET 0.021200 -31.938179 -4.336299
					CHANNELS 3 Xrotation Yrotation Zrotation
					JOINT newVegas:LeftToeBase
					{
						OFFSET 0.943001 -26.722000 15.023500
						CHANNELS 3 Xrotation Yrotation Zrotation
						End Site
						{
							OFFSET 0.000000 30.670183 0.000000
						}
					}
				}
				JOINT newVegas:Left_PantLeg
				{
					OFFSET 0.663870 -9.044666 -1.108900
					CHANNELS 3 Xrotation Yrotation Zrotation
					End Site
					{
						OFFSET 1.415995 20.635357 0.000000
					}
				}
			}
		}
		JOINT newVegas:RightUpLeg
		{
			OFFSET -18.735201 -5.666702 -4.541200
			CHANNELS 3 Xrotation Yrotation Zrotation
			JOINT newVegas:RightLeg
			{
				OFFSET 0.018946 -31.938133 0.493100
				CHANNELS 3 Xrotation Yrotation Zrotation
				JOINT newVegas:RightFoot
				{
					OFFSET -0.018946 -31.938126 -4.336299
					CHANNELS 3 Xrotation Yrotation Zrotation
					JOINT newVegas:RightToeBase
					{
						OFFSET -0.943001 -26.722004 15.023500
						CHANNELS 3 Xrotation Yrotation Zrotation
						End Site
						{
							OFFSET 0.000000 30.670187 0.000000
						}
					}
				}
				JOINT newVegas:Right_PantLeg
				{
					OFFSET -0.661674 -9.044716 -1.108900
					CHANNELS 3 Xrotation Yrotation Zrotation
					End Site
					{
						OFFSET -1.415958 20.635269 0.000000
					}
				}
			}
		}
	}
	JOINT newVegas:Spine
	{
		OFFSET 0.000000 10.199997 -0.299500
		CHANNELS 3 Xrotation Yrotation Zrotation
		JOINT newVegas:Spine1
		{
			OFFSET 0.000000 11.900002 -1.516600
			CHANNELS 3 Xrotation Yrotation Zrotation
			JOINT newVegas:Spine2
			{
				OFFSET 0.000000 13.600006 -2.842500
				CHANNELS 3 Xrotation Yrotation Zrotation
				JOINT newVegas:Neck
				{
					OFFSET 0.000000 9.624100 -2.890100
					CHANNELS 3 Xrotation Yrotation Zrotation
					JOINT newVegas:Head
					{
						OFFSET 0.000000 14.068802 -1.351900
						CHANNELS 3 Xrotation Yrotation Zrotation
						JOINT newVegas:Hair_Back
						{
							OFFSET 0.000000 3.231903 -17.524799
							CHANNELS 3 Xrotation Yrotation Zrotation
							End Site
							{
								OFFSET 0.000000 19.849884 0.000000
							}
						}
						JOINT newVegas:Hair_Front
						{
							OFFSET 0.000000 31.260406 4.573800
							CHANNELS 3 Xrotation Yrotation Zrotation
							JOINT newVegas:Hair_Front1
							{
								OFFSET 0.000000 2.284103 11.993300
								CHANNELS 3 Xrotation Yrotation Zrotation
								JOINT newVegas:Hair_Front2
								{
									OFFSET 0.000000 2.284103 11.993300
									CHANNELS 3 Xrotation Yrotation Zrotation
									End Site
									{
										OFFSET 0.000000 12.208862 0.000000
									}
								}
							}
						}
						JOINT newVegas:Jowel
						{
							OFFSET 0.000000 -7.458206 6.864100
							CHANNELS 3 Xrotation Yrotation Zrotation
							End Site
							{
								OFFSET 0.000000 19.849884 0.000000
							}
						}
					}
				}
				JOINT newVegas:LeftShoulder
				{
					OFFSET 15.263000 10.923401 -0.547700
					CHANNELS 3 Xrotation Yrotation Zrotation
					JOINT newVegas:LeftArm
					{
						OFFSET 25.438599 -2.830597 -13.032500
						CHANNELS 3 Xrotation Yrotation Zrotation
						JOINT newVegas:LeftForeArm
						{
							OFFSET 29.960503 0.000000 0.000000
							CHANNELS 3 Xrotation Yrotation Zrotation
							JOINT newVegas:LeftHand
							{
								OFFSET 27.849251 0.000000 0.000000
								CHANNELS 3 Xrotation Yrotation Zrotation
								JOINT newVegas:LeftHandThumb1
								{
									OFFSET 4.487587 -3.305161 6.305391
									CHANNELS 3 Xrotation Yrotation Zrotation
									JOINT newVegas:LeftHandThumb2
									{
										OFFSET 5.480453 -3.164139 3.164143
										CHANNELS 3 Xrotation Yrotation Zrotation
										JOINT newVegas:LeftHandThumb3
										{
											OFFSET 5.159721 -2.978973 2.978967
											CHANNELS 3 Xrotation Yrotation Zrotation
											End Site
											{
												OFFSET 2.494507 5.926697 1.738678
											}
										}
									}
								}
								JOINT newVegas:LeftHandIndex1
								{
									OFFSET 18.578728 -0.527832 5.208049
									CHANNELS 3 Xrotation Yrotation Zrotation
									JOINT newVegas:LeftHandIndex2
									{
										OFFSET 3.192009 0.000000 0.000000
										CHANNELS 3 Xrotation Yrotation Zrotation
										JOINT newVegas:LeftHandIndex3
										{
											OFFSET 3.835129 0.000000 0.000000
											CHANNELS 3 Xrotation Yrotation Zrotation
											End Site
											{
												OFFSET -0.034599 3.816971 0.371180
											}
										}
									}
								}
								JOINT newVegas:LeftHandMiddle1
								{
									OFFSET 18.476105 0.000000 0.000000
									CHANNELS 3 Xrotation Yrotation Zrotation
									JOINT newVegas:LeftHandMiddle2
									{
										OFFSET 3.324875 0.000000 0.000000
										CHANNELS 3 Xrotation Yrotation Zrotation
										JOINT newVegas:LeftHandMiddle3
										{
											OFFSET 4.596550 0.000000 0.000000
											CHANNELS 3 Xrotation Yrotation Zrotation
											End Site
											{
												OFFSET 0.057701 4.578827 0.399218
											}
										}
									}
								}
								JOINT newVegas:LeftHandRing1
								{
									OFFSET 17.732719 0.121887 -4.201567
									CHANNELS 3 Xrotation Yrotation Zrotation
									JOINT newVegas:LeftHandRing2
									{
										OFFSET 2.733170 0.000000 0.000000
										CHANNELS 3 Xrotation Yrotation Zrotation
										JOINT newVegas:LeftHandRing3
										{
											OFFSET 3.178268 0.000000 0.000000
											CHANNELS 3 Xrotation Yrotation Zrotation
											End Site
											{
												OFFSET 0.119102 3.170624 0.185394
											}
										}
									}
								}
								JOINT newVegas:LeftHandPinky1
								{
									OFFSET 15.989624 -0.606689 -7.535461
									CHANNELS 3 Xrotation Yrotation Zrotation
									JOINT newVegas:LeftHandPinky2
									{
										OFFSET 2.538986 0.000000 0.000000
										CHANNELS 3 Xrotation Yrotation Zrotation
										JOINT newVegas:LeftHandPinky3
										{
											OFFSET 2.593102 0.000000 0.000000
											CHANNELS 3 Xrotation Yrotation Zrotation
											End Site
											{
												OFFSET -0.150902 2.584198 0.152708
											}
										}
									}
								}
							}
							JOINT newVegas:Left_Sleeve
							{
								OFFSET 0.267448 -0.649796 0.577675
								CHANNELS 3 Xrotation Yrotation Zrotation
								End Site
								{
									OFFSET 0.000000 15.991241 0.000000
								}
							}
							JOINT newVegas:Left_CapeC
							{
								OFFSET 15.715958 -8.608795 -6.935905
								CHANNELS 3 Xrotation Yrotation Zrotation
								JOINT newVegas:Left_CapeC1
								{
									OFFSET 0.000000 -8.688499 0.000000
									CHANNELS 3 Xrotation Yrotation Zrotation
									End Site
									{
										OFFSET 0.000000 8.688499 0.000000
									}
								}
							}
						}
						JOINT newVegas:Left_CapeB
						{
							OFFSET 26.118385 -8.608795 -7.079235
							CHANNELS 3 Xrotation Yrotation Zrotation
							JOINT newVegas:Left_CapeB1
							{
								OFFSET 0.000000 -8.688499 0.000000
								CHANNELS 3 Xrotation Yrotation Zrotation
								End Site
								{
									OFFSET 0.000000 8.688499 0.000000
								}
							}
						}
						JOINT newVegas:Left_CapeA
						{
							OFFSET 5.115639 -8.608795 -10.395809
							CHANNELS 3 Xrotation Yrotation Zrotation
							JOINT newVegas:Left_CapeA1
							{
								OFFSET 0.000000 -8.688499 0.000000
								CHANNELS 3 Xrotation Yrotation Zrotation
								End Site
								{
									OFFSET 0.000000 8.688499 0.000000
								}
							}
						}
					}
				}
				JOINT newVegas:RightShoulder
				{
					OFFSET -15.263000 10.923401 -0.547700
					CHANNELS 3 Xrotation Yrotation Zrotation
					JOINT newVegas:RightArm
					{
						OFFSET -25.438599 -2.830597 -13.032500
						CHANNELS 3 Xrotation Yrotation Zrotation
						JOINT newVegas:RightForeArm
						{
							OFFSET -29.960503 0.000000 0.000000
							CHANNELS 3 Xrotation Yrotation Zrotation
							JOINT newVegas:RightHand
							{
								OFFSET -27.849251 0.000000 0.000000
								CHANNELS 3 Xrotation Yrotation Zrotation
								JOINT newVegas:RightHandThumb1
								{
									OFFSET -4.487587 -3.305161 6.305391
									CHANNELS 3 Xrotation Yrotation Zrotation
									JOINT newVegas:RightHandThumb2
									{
										OFFSET -5.480453 -3.164139 3.164143
										CHANNELS 3 Xrotation Yrotation Zrotation
										JOINT newVegas:RightHandThumb3
										{
											OFFSET -5.159721 -2.978973 2.978967
											CHANNELS 3 Xrotation Yrotation Zrotation
											End Site
											{
												OFFSET -2.494507 5.926697 1.738678
											}
										}
									}
								}
								JOINT newVegas:RightHandIndex1
								{
									OFFSET -18.578728 -0.527832 5.208049
									CHANNELS 3 Xrotation Yrotation Zrotation
									JOINT newVegas:RightHandIndex2
									{
										OFFSET -3.192009 0.000000 0.000000
										CHANNELS 3 Xrotation Yrotation Zrotation
										JOINT newVegas:RightHandIndex3
										{
											OFFSET -3.835129 0.000000 0.000000
											CHANNELS 3 Xrotation Yrotation Zrotation
											End Site
											{
												OFFSET 0.034599 3.816971 0.371180
											}
										}
									}
								}
								JOINT newVegas:RightHandMiddle1
								{
									OFFSET -18.476105 0.000000 0.000000
									CHANNELS 3 Xrotation Yrotation Zrotation
									JOINT newVegas:RightHandMiddle2
									{
										OFFSET -3.324875 0.000000 0.000000
										CHANNELS 3 Xrotation Yrotation Zrotation
										JOINT newVegas:RightHandMiddle3
										{
											OFFSET -4.596550 0.000000 0.000000
											CHANNELS 3 Xrotation Yrotation Zrotation
											End Site
											{
												OFFSET -0.057701 4.578827 0.399218
											}
										}
									}
								}
								JOINT newVegas:RightHandRing1
								{
									OFFSET -17.732719 0.121887 -4.201567
									CHANNELS 3 Xrotation Yrotation Zrotation
									JOINT newVegas:RightHandRing2
									{
										OFFSET -2.733170 0.000000 0.000000
										CHANNELS 3 Xrotation Yrotation Zrotation
										JOINT newVegas:RightHandRing3
										{
											OFFSET -3.178268 0.000000 0.000000
											CHANNELS 3 Xrotation Yrotation Zrotation
											End Site
											{
												OFFSET -0.119102 3.170624 0.185394
											}
										}
									}
								}
								JOINT newVegas:RightHandPinky1
								{
									OFFSET -15.989624 -0.606689 -7.535461
									CHANNELS 3 Xrotation Yrotation Zrotation
									JOINT newVegas:RightHandPinky2
									{
										OFFSET -2.538986 0.000000 0.000000
										CHANNELS 3 Xrotation Yrotation Zrotation
										JOINT newVegas:RightHandPinky3
										{
											OFFSET -2.593102 0.000000 0.000000
											CHANNELS 3 Xrotation Yrotation Zrotation
											End Site
											{
												OFFSET 0.150902 2.584198 0.152708
											}
										}
									}
								}
							}
							JOINT newVegas:Right_CapeC
							{
								OFFSET -15.715958 -8.608795 -6.935905
								CHANNELS 3 Xrotation Yrotation Zrotation
								JOINT newVegas:Right_CapeC1
								{
									OFFSET 0.000000 -8.688499 0.000000
									CHANNELS 3 Xrotation Yrotation Zrotation
									End Site
									{
										OFFSET 0.000000 8.688499 0.000000
									}
								}
							}
							JOINT newVegas:Right_Sleeve
							{
								OFFSET -0.267448 -0.649994 0.577675
								CHANNELS 3 Xrotation Yrotation Zrotation
								End Site
								{
									OFFSET 0.000000 15.991302 0.000000
								}
							}
						}
						JOINT newVegas:Right_CapeA
						{
							OFFSET -5.115540 -8.608795 -10.395824
							CHANNELS 3 Xrotation Yrotation Zrotation
							JOINT newVegas:Right_CapeA1
							{
								OFFSET 0.000000 -8.688499 0.000000
								CHANNELS 3 Xrotation Yrotation Zrotation
								End Site
								{
									OFFSET 0.000000 8.688499 0.000000
								}
							}
						}
						JOINT newVegas:Right_CapeB
						{
							OFFSET -26.118187 -8.608795 -7.079266
							CHANNELS 3 Xrotation Yrotation Zrotation
							JOINT newVegas:Right_CapeB1
							{
								OFFSET 0.000000 -8.688499 0.000000
								CHANNELS 3 Xrotation Yrotation Zrotation
								End Site
								{
									OFFSET 0.000000 8.688499 0.000000
								}
							}
						}
					}
				}
				JOINT newVegas:Left_Collar
				{
					OFFSET 18.625099 8.655502 8.828100
					CHANNELS 3 Xrotation Yrotation Zrotation
					JOINT newVegas:Left_Collar1
					{
						OFFSET 14.783401 10.540405 -1.259500
						CHANNELS 3 Xrotation Yrotation Zrotation
						End Site
						{
							OFFSET 0.000000 18.199875 0.000000
						}
					}
				}
				JOINT newVegas:Collar_Back
				{
					OFFSET 0.000000 15.630707 -20.132601
					CHANNELS 3 Xrotation Yrotation Zrotation
					End Site
					{
						OFFSET 0.000000 22.523010 0.000000
					}
				}
				JOINT newVegas:Left_Peck
				{
					OFFSET 17.239599 -5.132599 25.482599
					CHANNELS 3 Xrotation Yrotation Zrotation
					End Site
					{
						OFFSET 0.000000 22.523010 0.000000
					}
				}
				JOINT newVegas:Right_Peck
				{
					OFFSET -17.239599 -5.132202 25.482599
					CHANNELS 3 Xrotation Yrotation Zrotation
					End Site
					{
						OFFSET 0.000000 22.523010 0.000000
					}
				}
				JOINT newVegas:Right_Collar
				{
					OFFSET -18.625099 8.655792 8.828100
					CHANNELS 3 Xrotation Yrotation Zrotation
					JOINT newVegas:Right_Collar1
					{
						OFFSET -14.783401 10.539993 -1.259500
						CHANNELS 3 Xrotation Yrotation Zrotation
						End Site
						{
							OFFSET 0.000000 18.199631 0.000000
						}
					}
				}
			}
		}
		JOINT newVegas:Belly
		{
			OFFSET 0.000000 -6.540398 9.014299
			CHANNELS 3 Xrotation Yrotation Zrotation
			End Site
			{
				OFFSET 0.000000 11.566666 0.000000
			}
		}
	}
	JOINT newVegas:ElvisFacialAnim_Joint
	{
		OFFSET 1.000000 -95.330101 -8.825800
		CHANNELS 3 Xrotation Yrotation Zrotation
		End Site
		{
			OFFSET 0.000000 35.315800 0.000000
		}
	}
}
MOTION
Frames: 4
Frame Time: 0.016667
-3.916314 83.274208 2.332625 3.004775 -58.203218 6.441628 -0.000000 -0.000001 -0.000000 -38.300767 6.320429 29.635409 47.031190 -9.811635 -10.643177 -10.044994 -1.887318 -11.913065 -0.000000 -0.000001 -0.000000 0.000000 0.000003 0.000001 -34.547797 -3.821298 -30.691797 55.034748 4.454003 -7.825886 -22.925130 0.235623 25.815672 0.000000 0.000001 -0.000000 -0.000001 0.000000 0.000000 11.191376 0.081150 -2.660804 8.434584 0.027672 -5.592321 8.457028 0.027908 -5.591869 -3.775786 5.323446 1.581309 -3.775807 5.323443 1.581313 0.000003 0.000002 -0.000000 -3.775710 5.323430 1.581303 -3.775793 5.323498 1.581300 0.000000 0.000000 -0.000000 0.000003 0.000002 -0.000001 -6.221633 -11.503839 -4.023759 -23.061625 9.569256 -36.639816 0.046367 -43.170959 -0.010989 22.743639 -5.684950 15.979072 -1.064218 -7.954933 8.490075 2.373364 19.986156 -2.038309 0.000001 -0.000003 -0.000007 13.340865 -1.006663 10.682269 -0.167569 0.303389 -31.105638 0.000001 0.000001 0.000001 8.495446 -0.329595 -0.915314 0.231492 0.661216 -29.901865 -0.000000 0.000001 -0.000005 6.111742 3.150910 -16.210928 0.047080 0.322427 -30.125492 -0.000001 -0.000001 -0.000001 -5.636034 7.709877 -13.878622 0.224366 0.276560 -46.588375 0.000000 0.000002 -0.000001 0.000001 0.000001 -0.000001 0.000001 0.000001 -0.000001 0.000001 0.000000 -0.000001 0.000001 -0.000002 0.000003 0.000002 -0.000002 0.000000 0.000001 -0.000002 0.000003 0.000001 -0.000002 0.000003 -5.488229 10.658248 2.466469 -41.473879 -26.755586 30.079033 24.955744 111.862933 -23.308789 -8.702459 12.423108 -9.801924 0.264989 10.061096 -10.888524 1.383779 -17.412864 3.016265 -0.000000 0.000000 -0.000002 19.443607 11.174423 -13.340184 -0.118681 -0.322694 18.035618 -0.000001 0.000001 0.000003 4.320461 2.436943 -4.811743 0.349141 -0.461224 26.890345 0.000001 0.000003 -0.000001 -7.005635 -10.695171 5.719822 0.111889 -0.089176 26.155870 0.000002 0.000004 -0.000002 -19.433584 -20.238206 5.987832 0.223792 -0.085803 36.844578 -0.000004 0.000002 0.000001 -0.000000 0.000003 0.000003 -0.000002 0.000006 0.000002 -0.000000 0.000004 0.000003 -0.000001 0.000003 -0.000002 -0.000001 0.000003 -0.000002 -0.000001 0.000003 -0.000002 -0.000001 0.000003 -0.000001 -0.000002 -0.000001 0.000001 -0.000002 -0.000001 0.000001 -0.000002 -0.000001 0.000001 -0.000002 -0.000001 0.000001 -0.000002 -0.000001 0.000001 -0.000002 -0.000001 0.000001 -0.000002 -0.000001 0.000001 -0.000001 0.000001 0.000000 -0.000000 -0.000001 -0.000000 
-4.235466 83.263481 2.372813 4.761422 -58.819096 8.576874 -0.000000 0.000001 -0.000000 -37.940547 6.798283 28.954278 46.397311 -8.942246 -10.407554 -10.297643 -1.657051 -12.445721 -0.000000 0.000002 -0.000000 0.000001 -0.000004 -0.000000 -35.665749 -2.821314 -30.912582 55.464336 4.525950 -7.827741 -23.102019 0.299487 25.800007 -0.000000 0.000002 0.000000 0.000001 0.000000 -0.000003 10.572368 0.057822 -2.943327 7.278659 0.995587 -6.029102 7.868293 0.668184 -5.886739 -3.593676 5.089025 0.903629 -3.593708 5.089072 0.903625 0.000001 -0.000000 0.000001 -3.593688 5.089058 0.903620 -3.593684 5.089080 0.903617 0.000002 0.000000 -0.000000 0.000001 -0.000000 -0.000000 -6.438874 -13.164617 -4.289223 -20.844404 7.515348 -36.011346 -0.375305 -40.249024 -0.284903 20.711480 -9.083190 15.351146 -1.038630 -7.822546 8.542167 2.457005 20.247020 -1.940283 0.000002 -0.000000 -0.000005 13.341816 -1.007614 10.381771 -0.167190 0.303661 -31.406245 0.000000 -0.000000 -0.000002 8.490662 -0.326628 -1.215856 0.233147 0.662203 -30.202454 -0.000001 0.000000 -0.000004 6.108714 3.154429 -16.511140 0.047232 0.324446 -30.426075 -0.000000 0.000001 -0.000002 -5.637279 7.711646 -14.177646 0.225500 0.277472 -46.888996 -0.000000 -0.000003 -0.000000 0.000001 0.000004 -0.000003 0.000001 0.000004 -0.000003 0.000001 0.000004 -0.000003 -0.000001 0.000002 -0.000000 -0.000000 0.000002 -0.000003 -0.000001 0.000002 -0.000000 -0.000001 0.000003 -0.000000 -5.541682 9.386651 2.275661 -42.475526 -27.794007 27.164158 22.803355 114.466259 -20.890205 -4.795830 10.170867 -11.609665 0.377270 9.088731 -11.243435 1.701213 -18.294551 2.663706 0.000002 -0.000003 -0.000001 19.445019 11.175356 -12.309053 -0.117716 -0.323600 19.070491 -0.000002 0.000001 0.000002 4.313793 2.427149 -3.776349 0.354726 -0.465014 27.925138 0.000001 0.000000 0.000004 -6.995282 -10.694692 6.754746 0.111823 -0.096128 27.190693 0.000003 -0.000001 -0.000001 -19.413718 -20.226883 7.025158 0.227317 -0.089611 37.879375 -0.000001 0.000003 0.000002 -0.000000 0.000002 0.000001 -0.000002 -0.000001 0.000002 -0.000000 0.000001 0.000001 0.000001 0.000002 0.000003 0.000001 0.000003 0.000004 0.000001 0.000002 0.000003 0.000001 0.000003 0.000005 0.000001 -0.000002 -0.000001 0.000001 -0.000002 -0.000001 0.000001 -0.000002 -0.000001 0.000001 -0.000002 -0.000001 0.000001 -0.000002 -0.000001 0.000001 -0.000002 -0.000001 0.000001 -0.000002 -0.000001 -0.000000 0.000001 -0.000000 -0.000000 0.000001 -0.000000 
-4.936816 83.373772 2.477395 6.505315 -60.058475 10.626201 -0.000000 0.000001 -0.000000 -36.561965 7.348068 28.453033 45.544743 -7.743794 -10.033694 -11.058641 -1.099971 -13.441910 0.000000 0.000001 -0.000000 0.000000 0.000001 0.000002 -36.407367 -1.777723 -30.747179 55.510061 4.701970 -7.771917 -23.281741 0.565301 25.630976 0.000000 -0.000000 -0.000000 -0.000001 0.000000 -0.000005 9.970806 0.040612 -3.214757 5.412856 1.778453 -6.941525 6.233830 0.975659 -6.719547 -3.220903 4.844761 0.062835 -3.220901 4.844758 0.062833 0.000001 -0.000000 0.000001 -3.220836 4.844760 0.062830 -3.220976 4.844746 0.062844 0.000001 0.000000 -0.000000 0.000001 -0.000000 0.000000 -6.702465 -14.957882 -4.571853 -18.021915 7.338827 -35.052551 -0.477859 -38.363315 -0.338793 19.213308 -11.154194 13.927273 -0.979493 -7.455863 8.678446 2.699612 20.954262 -1.668315 0.000001 -0.000001 -0.000001 13.344386 -1.010292 9.557774 -0.166129 0.304237 -32.230474 -0.000001 -0.000003 -0.000002 8.482581 -0.318408 -2.040055 0.237667 0.664811 -31.026708 -0.000000 0.000002 -0.000001 6.100526 3.163992 -17.334388 0.047641 0.330015 -31.250291 0.000001 0.000005 -0.000003 -5.619223 7.707118 -15.003448 0.228778 0.280010 -47.713195 0.000000 0.000000 -0.000001 -0.000000 0.000002 -0.000001 -0.000000 0.000002 -0.000001 -0.000000 0.000002 -0.000001 0.000002 -0.000001 0.000002 0.000003 -0.000002 0.000001 0.000002 -0.000001 0.000002 0.000002 -0.000001 0.000002 -5.596369 8.117647 2.079306 -42.075345 -29.071136 25.529891 21.515803 116.635712 -19.361534 -0.202623 8.375957 -12.996907 0.500869 7.974828 -11.648255 2.059881 -19.306424 2.263694 0.000001 -0.000002 -0.000001 19.446623 11.176448 -11.126323 -0.116613 -0.324509 20.255858 -0.000002 0.000001 -0.000001 4.304656 2.415546 -2.590491 0.361305 -0.469183 29.110536 -0.000001 -0.000001 -0.000001 -6.989915 -10.702573 7.938620 0.111973 -0.104126 28.376019 -0.000003 0.000001 0.000001 -19.401451 -20.220584 8.211974 0.231375 -0.093839 39.064792 -0.000000 0.000003 -0.000000 -0.000001 -0.000003 -0.000001 -0.000000 -0.000001 0.000000 0.000001 -0.000002 -0.000001 -0.000001 -0.000004 -0.000003 -0.000001 -0.000003 -0.000003 -0.000001 -0.000004 -0.000003 -0.000001 -0.000003 -0.000002 -0.000002 0.000003 -0.000001 -0.000002 0.000003 -0.000001 -0.000002 0.000003 -0.000001 -0.000002 0.000003 -0.000001 -0.000002 0.000003 -0.000001 -0.000002 0.000003 -0.000001 -0.000002 0.000003 -0.000001 -0.000001 0.000000 -0.000000 -0.000000 0.000001 -0.000000 
-5.936477 83.593063 2.640809 7.671680 -61.293558 11.981472 0.000000 0.000001 -0.000000 -34.539447 8.015841 28.209380 44.365712 -6.851854 -9.621017 -11.895447 -0.413058 -14.527249 -0.000000 -0.000000 0.000000 0.000001 0.000001 0.000001 -36.154524 -0.998216 -30.273570 55.119179 4.561900 -7.671948 -23.647869 0.840693 25.530805 0.000000 0.000001 -0.000000 -0.000001 0.000001 -0.000001 9.401609 0.020978 -3.466008 3.106748 1.642270 -8.093142 4.027168 1.010937 -7.900988 -2.842617 4.664524 -0.826806 -2.842612 4.664511 -0.826807 0.000002 0.000003 0.000000 -2.842614 4.664520 -0.826806 -2.842618 4.664549 -0.826807 -0.000000 -0.000002 0.000001 0.000002 0.000003 0.000001 -6.970872 -16.475495 -4.859274 -16.573500 10.147437 -34.139461 -0.206052 -37.784685 -0.168408 18.782580 -9.426700 9.926445 -0.892364 -6.907663 8.881329 3.057552 22.012759 -1.265171 0.000003 0.000000 -0.000010 13.348089 -1.014320 8.326607 -0.164572 0.305129 -33.462026 -0.000001 -0.000002 0.000000 8.470790 -0.305793 -3.271492 0.244491 0.668629 -32.258277 0.000001 -0.000001 0.000000 6.099457 3.178684 -18.565235 0.052132 0.338259 -32.481791 -0.000002 0.000001 -0.000001 -5.597872 7.702243 -16.236931 0.233573 0.283715 -48.944736 -0.000000 0.000000 -0.000001 0.000000 0.000003 -0.000001 0.000000 0.000003 -0.000001 0.000000 0.000002 -0.000001 0.000000 -0.000002 0.000001 0.000001 -0.000002 -0.000002 0.000000 -0.000002 0.000001 -0.000000 -0.000001 0.000001 -5.673092 6.670776 1.984884 -39.956525 -30.758497 25.815262 19.616199 120.069617 -17.091346 4.611850 6.349241 -13.813225 0.623020 6.825574 -12.064239 2.424488 -20.352733 1.854917 0.000002 -0.000004 -0.000001 19.448262 11.177652 -9.904333 -0.115459 -0.325459 21.478850 0.000001 -0.000003 0.000004 4.293697 2.403178 -1.367001 0.368095 -0.473345 30.333498 -0.000001 0.000000 0.000000 -6.994979 -10.712267 9.159848 0.112253 -0.112067 29.599007 -0.000003 0.000002 0.000001 -19.401344 -20.222682 9.433955 0.235597 -0.098172 40.287779 0.000001 0.000002 -0.000000 0.000000 0.000002 0.000004 -0.000000 0.000001 0.000007 0.000000 0.000001 0.000004 -0.000001 0.000002 -0.000000 -0.000001 0.000003 -0.000002 -0.000001 0.000002 -0.000000 -0.000001 0.000003 -0.000000 0.000002 0.000001 -0.000000 0.000002 0.000001 -0.000000 0.000002 0.000001 -0.000000 0.000002 0.000001 -0.000000 0.000002 0.000001 -0.000000 0.000002 0.000001 -0.000000 0.000002 0.000001 -0.000000 -0.000001 0.000000 0.000000 0.000000 0.000001 -0.000000 
